<?xml version="1.0" standalone="no"?>
<!DOCTYPE svg PUBLIC "-//W3C//DTD SVG 20010904//EN"
 "http://www.w3.org/TR/2001/REC-SVG-20010904/DTD/svg10.dtd">
<svg version="1.0" xmlns="http://www.w3.org/2000/svg"
 width="2480.000000pt" height="2480.000000pt" viewBox="0 0 2480.000000 2480.000000"
 preserveAspectRatio="xMidYMid meet">

<g transform="translate(0.000000,2480.000000) scale(0.100000,-0.100000)"
fill="#000000" stroke="none">
<path d="M11460 23569 c-1520 -139 -2924 -537 -4245 -1205 -2067 -1044 -3750
-2661 -4884 -4694 -776 -1390 -1273 -2992 -1415 -4560 -36 -391 -41 -515 -41
-1040 0 -561 6 -704 51 -1150 301 -3016 1802 -5842 4119 -7755 2315 -1912
5314 -2866 8265 -2629 1489 119 2904 510 4245 1174 659 326 1256 693 1820
1119 185 140 185 140 75 81 -1283 -689 -2597 -1114 -3970 -1284 -523 -65 -796
-81 -1395 -81 -601 0 -870 16 -1395 81 -2118 263 -4109 1126 -5765 2499 -492
409 -1006 921 -1412 1409 -1278 1533 -2117 3366 -2448 5346 -189 1128 -200
2288 -34 3420 406 2764 1830 5279 3987 7039 1266 1034 2743 1774 4351 2182
108 27 201 51 206 54 13 5 -3 4 -115 -6z"/>
<path d="M10111 18753 c-13 -3 -148 -35 -300 -73 -1164 -289 -2275 -737 -3305
-1334 -567 -329 -1192 -769 -1720 -1210 -229 -191 -293 -251 -373 -350 -108
-135 -183 -322 -183 -453 1 -258 268 -629 591 -824 122 -73 193 -94 319 -94
206 0 333 65 703 358 599 476 1205 890 1730 1183 l89 49 1206 1335 c664 734
1224 1354 1246 1378 21 23 35 41 30 41 -5 -1 -20 -4 -33 -6z"/>
<path d="M12540 9419 c-976 -100 -1814 -810 -2074 -1761 -68 -249 -81 -350
-81 -658 0 -304 7 -363 70 -606 216 -834 897 -1516 1730 -1734 498 -130 1043
-92 1530 106 532 217 985 638 1245 1154 171 341 253 691 253 1085 0 282 -35
508 -117 758 -298 903 -1080 1542 -2024 1652 -136 16 -394 18 -532 4z m450
-915 c36 -9 111 -38 166 -64 268 -129 444 -412 444 -712 -1 -253 -87 -424
-318 -632 -83 -74 -76 -5 -82 -886 -5 -769 -5 -786 -26 -820 -11 -19 -40 -46
-65 -60 l-44 -25 -287 0 c-275 0 -288 1 -315 21 -15 11 -38 36 -50 54 l-23 33
0 788 c0 520 -4 797 -10 815 -6 15 -66 82 -134 148 -113 111 -127 129 -170
216 -67 138 -81 200 -80 355 0 120 3 138 33 225 38 113 75 182 144 269 123
155 305 258 512 290 76 12 221 5 305 -15z"/>
</g>
</svg>
